<?xml version="1.0" standalone="no"?>
<!DOCTYPE svg PUBLIC "-//W3C//DTD SVG 20010904//EN"
 "http://www.w3.org/TR/2001/REC-SVG-20010904/DTD/svg10.dtd">
<svg version="1.0" xmlns="http://www.w3.org/2000/svg"
 width="260.000000pt" height="260.000000pt" viewBox="0 0 260.000000 260.000000"
 preserveAspectRatio="xMidYMid meet">
<metadata>
Created by potrace 1.14, written by Peter Selinger 2001-2017
</metadata>
<g transform="translate(0.000000,260.000000) scale(0.100000,-0.100000)"
fill="#000000" stroke="none">
<path d="M845 2418 c-29 -17 -45 -35 -45 -51 0 -19 -47 -51 -52 -35 -3 8 -9 8
-24 -1 -15 -10 -15 -11 -1 -7 20 6 21 2 7 -24 -6 -10 -17 -16 -27 -14 -24 6
-44 -8 -46 -33 0 -11 -7 -20 -14 -20 -10 0 -10 4 -1 16 7 9 0 5 -15 -9 -16
-13 -23 -26 -18 -28 6 -2 11 -11 11 -19 0 -14 -3 -13 -21 3 -15 14 -20 15 -17
4 2 -8 -3 -14 -9 -13 -7 2 -13 -3 -13 -11 0 -8 -9 -17 -19 -21 -12 -4 -18 -12
-14 -21 4 -10 0 -12 -11 -8 -14 5 -15 2 -7 -18 7 -20 6 -24 -10 -24 -13 0 -15
3 -7 13 7 9 7 13 -1 13 -6 0 -11 -3 -12 -7 0 -5 -2 -16 -4 -25 -2 -11 2 -15
11 -11 8 3 14 0 14 -7 0 -9 -10 -11 -30 -6 -29 5 -30 4 -25 -22 3 -18 3 -21
-3 -9 -7 16 -8 16 -25 -3 -15 -18 -15 -20 -1 -20 13 0 14 -3 4 -15 -7 -8 -16
-13 -20 -10 -4 3 -13 -2 -20 -10 -8 -9 -8 -15 -2 -15 6 0 13 6 15 13 4 9 6 9
6 -1 1 -7 -5 -15 -13 -18 -9 -3 -12 -12 -9 -22 5 -11 2 -14 -10 -9 -11 4 -20
-1 -27 -13 -13 -24 -13 -53 0 -45 6 3 7 -1 4 -10 -5 -12 -10 -13 -17 -6 -6 6
-16 11 -21 11 -6 0 -5 -4 3 -9 11 -7 11 -15 2 -37 -8 -20 -10 -22 -7 -6 6 31
-6 28 -27 -8 -10 -16 -15 -30 -11 -30 4 0 0 -8 -9 -17 -8 -10 -16 -21 -16 -25
-1 -5 -1 -9 -2 -10 0 -2 -2 -12 -4 -23 -2 -11 -10 -24 -17 -30 -7 -5 -13 -16
-14 -22 -1 -7 -2 -23 -3 -35 -1 -17 -4 -20 -10 -9 -13 20 -21 -9 -9 -32 5 -10
7 -21 4 -25 -3 -3 -6 1 -6 9 0 12 -2 12 -10 -1 -6 -9 -5 -20 3 -29 10 -12 9
-14 -5 -8 -10 3 -18 3 -19 -1 0 -4 -2 -15 -4 -24 -2 -10 0 -17 3 -17 20 3 28
-3 29 -21 1 -11 -2 -20 -8 -20 -5 0 -9 7 -9 16 0 8 -4 13 -10 9 -6 -4 -6 -15
0 -31 12 -31 12 -37 1 -30 -9 6 -5 -23 7 -54 3 -8 6 -19 7 -25 0 -5 6 -9 13
-8 16 4 16 -14 0 -20 -10 -4 -10 -7 0 -15 7 -5 10 -16 6 -25 -3 -10 -1 -17 6
-17 6 0 9 4 5 9 -11 18 17 23 33 6 10 -10 12 -15 6 -12 -7 4 -18 -1 -25 -10
-10 -12 -10 -14 -1 -9 6 4 17 4 23 0 8 -5 8 -9 -1 -14 -7 -4 6 -6 29 -5 30 2
41 -2 41 -12 0 -8 -4 -11 -10 -8 -5 3 -10 2 -10 -4 0 -5 9 -9 20 -8 18 1 24 9
21 29 0 4 7 4 16 1 10 -4 14 -2 10 4 -4 6 0 14 9 17 11 4 14 1 10 -12 -4 -12
-1 -19 7 -19 8 0 14 9 13 20 -1 11 5 21 12 23 7 1 8 0 3 -2 -6 -3 -7 -12 -5
-19 8 -20 32 4 27 26 -3 11 4 22 18 30 35 18 52 38 55 63 1 11 3 23 3 25 1 2
9 -3 18 -10 9 -8 14 -9 10 -3 -4 7 0 15 9 18 8 3 12 10 9 16 -3 5 -1 10 4 10
6 0 11 7 11 15 0 8 11 22 25 31 14 9 23 20 20 24 -2 4 8 7 23 6 22 -1 27 -5
25 -23 -2 -15 3 -23 12 -23 8 0 15 -6 15 -14 0 -7 11 -25 25 -40 14 -15 25
-31 25 -36 0 -5 5 -12 12 -16 8 -5 9 -2 5 10 -5 12 -3 16 5 13 7 -2 12 -13 10
-25 -2 -11 2 -23 8 -27 17 -11 38 13 34 38 -4 19 -3 20 4 3 5 -11 17 -23 28
-27 17 -7 17 -8 2 -8 -10 -1 -18 -6 -18 -12 0 -5 -4 -8 -9 -4 -5 3 -13 0 -17
-6 -4 -7 -3 -9 4 -5 6 3 14 2 17 -4 5 -8 11 -7 21 1 9 7 14 8 14 1 0 -6 -5
-12 -12 -14 -6 -2 -9 -12 -5 -21 4 -11 12 -14 23 -10 13 5 16 3 11 -10 -6 -16
3 -22 26 -18 5 1 6 -3 2 -8 -8 -13 28 -48 43 -43 7 2 12 0 11 -5 -3 -20 2 -34
11 -28 6 3 13 -2 17 -12 10 -29 35 -53 47 -46 20 13 36 12 36 -3 0 -19 17 -18
28 2 8 15 10 15 15 0 4 -10 3 -14 -2 -11 -5 3 -12 1 -15 -4 -4 -5 -2 -12 4
-16 6 -3 7 -18 3 -33 -6 -25 -5 -26 11 -13 9 8 16 10 15 5 -4 -21 2 -26 16
-14 13 11 14 10 9 -4 -4 -12 -13 -15 -28 -10 -18 6 -19 5 -7 -9 7 -9 17 -14
22 -11 5 3 8 0 7 -7 -2 -7 2 -13 7 -14 6 0 16 -4 24 -9 10 -7 12 -5 7 5 -4 8
-1 6 7 -4 12 -14 16 -15 26 -4 6 8 9 17 6 20 -3 4 -2 5 2 2 3 -3 13 1 22 7 9
7 3 -2 -13 -20 -16 -17 -33 -29 -38 -26 -4 3 -8 1 -8 -5 0 -17 22 -24 31 -10
5 8 9 9 9 4 0 -6 9 -16 21 -23 13 -9 18 -9 14 -2 -4 7 2 14 15 17 16 4 18 8 8
14 -9 6 -9 9 -1 9 6 0 15 -5 18 -10 4 -6 10 -8 15 -5 5 3 11 1 14 -4 3 -4 -2
-8 -12 -8 -35 0 -42 -3 -42 -18 0 -8 5 -15 11 -15 5 0 7 4 4 10 -3 5 -1 10 4
10 6 0 11 -4 11 -10 0 -5 7 -10 15 -10 8 0 15 5 15 11 0 6 7 8 16 5 15 -6 15
-4 3 10 -13 16 -12 16 8 6 53 -29 76 25 71 162 -3 82 -1 92 13 89 10 -3 15
-12 13 -21 -3 -10 5 -30 16 -47 11 -16 20 -25 20 -20 0 6 -6 17 -12 24 -11 10
-10 11 5 6 9 -4 17 -16 17 -26 0 -18 11 -24 34 -20 5 1 3 -5 -4 -14 -11 -13
-11 -18 -1 -24 7 -5 12 -11 12 -15 -1 -3 -1 -7 0 -8 0 -2 2 -11 5 -20 8 -36
11 -44 24 -70 8 -17 22 -28 34 -29 20 0 20 -1 2 -8 -12 -4 -15 -10 -9 -14 5
-4 9 -22 8 -42 -1 -19 3 -35 9 -35 7 0 8 -3 1 -8 -5 -4 -11 -16 -13 -27 -4
-22 -39 -54 -60 -55 -7 0 -10 -5 -7 -11 4 -6 1 -10 -6 -8 -26 3 -40 -1 -35
-10 4 -5 -3 -7 -14 -4 -11 3 -18 9 -15 13 3 4 -5 10 -18 13 -26 7 -43 5 -40
-5 2 -4 -4 -5 -12 -2 -8 4 -12 10 -9 15 3 5 0 9 -7 9 -17 0 -87 48 -117 80
-13 14 -20 18 -16 10 7 -14 -13 3 -71 58 -13 12 -28 22 -33 22 -5 0 -17 10
-26 22 -9 13 -14 16 -10 8 7 -12 5 -13 -8 -2 -8 7 -24 9 -33 5 -13 -4 -16 -3
-11 6 6 8 -2 11 -28 9 -20 -1 -36 -5 -36 -8 0 -3 -17 -4 -37 -3 -46 4 -74 -16
-79 -54 -15 -109 -19 -165 -12 -169 5 -3 6 -10 2 -15 -9 -16 76 -139 97 -139
26 0 31 14 9 30 -20 14 -19 15 3 27 22 13 21 13 -6 9 -25 -4 -30 1 -56 53 -20
39 -27 62 -20 72 6 9 9 10 9 2 0 -7 10 -18 23 -24 12 -6 19 -8 14 -4 -4 5 0
17 10 27 15 17 15 18 -5 19 -12 1 -28 2 -34 3 -14 1 -20 56 -7 56 13 0 20 -18
9 -25 -5 -3 -10 -11 -10 -17 0 -7 6 -6 15 2 12 10 15 10 16 -1 0 -8 7 0 14 16
7 17 11 33 8 37 -2 5 2 8 11 8 14 0 16 -16 3 -36 -9 -15 1 -24 21 -17 15 4 15
3 2 -6 -8 -6 -10 -11 -5 -11 6 0 3 -6 -6 -13 -8 -7 -18 -23 -22 -35 -5 -22 -4
-22 11 -9 9 8 23 12 30 10 9 -3 12 2 9 19 -2 12 -2 17 0 11 3 -7 9 -13 15 -13
6 0 6 -6 -2 -15 -8 -9 -9 -15 -2 -15 6 0 14 5 17 10 10 16 25 12 19 -5 -6 -14
6 -20 30 -16 9 2 35 -29 36 -42 0 -5 -4 -5 -10 -2 -5 3 -10 2 -10 -4 0 -5 4
-12 10 -16 5 -3 7 -12 4 -20 -4 -8 -9 -13 -14 -10 -4 2 -5 -7 -2 -22 3 -18 1
-24 -7 -19 -6 4 -11 14 -11 22 0 8 -3 14 -8 14 -12 0 -8 -79 4 -84 8 -3 11 3
8 19 -4 22 -1 23 31 20 24 -2 35 1 32 8 -2 7 -13 10 -23 9 -15 -3 -16 -1 -7 8
9 10 16 9 32 -2 12 -8 20 -17 18 -19 -1 -2 3 2 10 10 17 20 41 7 41 -23 0 -20
-6 -26 -22 -26 -15 0 -17 3 -8 8 8 6 2 9 -17 9 -25 0 -28 -3 -21 -21 4 -12 9
-19 12 -16 3 3 13 -2 23 -10 17 -14 18 -13 12 2 -3 10 -2 18 3 18 5 0 11 -8
13 -17 3 -13 5 -12 6 5 1 19 6 22 29 20 17 -2 26 1 24 10 -1 6 2 12 8 12 14 0
13 -13 -2 -28 -9 -9 -9 -12 1 -12 11 0 11 -3 0 -17 -11 -15 -11 -16 1 -6 11
10 18 9 34 -5 11 -9 16 -11 12 -4 -4 7 -1 12 8 13 30 3 34 4 43 13 4 5 -10 6
-34 3 -24 -3 -45 -1 -48 3 -8 13 6 41 17 34 5 -3 8 2 6 11 -2 10 6 22 17 29
11 6 25 18 32 26 7 9 12 10 13 4 0 -6 -7 -17 -15 -24 -8 -7 -15 -17 -15 -22 0
-5 10 0 21 11 17 15 24 17 34 8 7 -7 9 -13 5 -15 -5 -2 -6 -11 -3 -20 5 -14 3
-15 -8 -4 -19 17 -34 15 -19 -3 18 -21 29 -19 40 10 5 14 16 25 25 25 8 0 15
5 15 12 0 6 7 3 15 -8 13 -16 16 -17 25 -4 8 13 10 12 10 -4 0 -12 5 -16 16
-12 9 3 18 6 20 6 3 0 2 5 -2 11 -5 8 -1 8 13 0 14 -7 23 -7 31 1 7 7 12 8 12
4 0 -5 11 3 25 18 14 15 23 31 20 36 -3 4 4 10 15 13 11 3 23 0 27 -5 4 -7 1
-8 -7 -3 -10 6 -12 4 -7 -9 4 -9 3 -15 -2 -12 -5 3 -11 -1 -14 -8 -4 -11 1
-14 21 -13 20 2 27 8 25 22 -2 30 -11 64 -19 77 -4 7 -3 8 4 4 7 -4 12 -3 12
3 0 5 3 17 7 27 4 12 3 15 -5 10 -8 -5 -10 -2 -6 8 3 9 11 16 18 16 7 0 7 3 1
8 -5 4 -11 14 -13 22 -1 10 3 9 13 -5 9 -11 13 -26 10 -35 -4 -11 -1 -10 9 2
16 22 30 23 22 2 -3 -8 -2 -12 3 -9 11 6 9 44 -3 63 -4 7 -2 19 4 27 9 11 9
15 1 15 -6 0 -11 4 -11 10 0 5 7 7 15 4 17 -7 21 -34 5 -34 -5 0 -10 -5 -10
-11 0 -5 5 -7 10 -4 21 13 13 -95 -8 -112 -16 -12 -16 -13 0 -7 16 5 17 0 13
-43 -3 -26 -10 -50 -15 -51 -6 -2 -7 -8 -4 -13 3 -6 -5 -7 -22 -3 -15 4 -25 3
-21 -2 3 -5 -11 -9 -31 -9 -29 0 -35 -4 -37 -23 -2 -27 3 -28 21 -5 10 15 15
16 26 5 11 -11 10 -12 -6 -6 -16 6 -18 4 -13 -10 4 -10 7 -22 7 -28 0 -6 9 -3
19 6 14 13 21 14 27 5 4 -8 3 -10 -4 -5 -14 9 -46 -39 -37 -56 3 -7 -2 -3 -11
9 -9 13 -23 23 -30 23 -8 0 -14 5 -14 11 0 5 -4 7 -10 4 -15 -9 -12 -25 4 -25
8 0 16 -6 19 -13 6 -17 -11 -59 -22 -52 -6 3 -14 -3 -20 -12 -8 -15 -12 -16
-23 -5 -11 11 -10 14 1 21 7 5 10 14 7 20 -4 6 -11 9 -15 6 -9 -5 -5 55 4 63
5 6 9 -22 6 -48 -2 -13 -1 -13 9 0 5 8 7 28 4 44 -4 17 -2 26 3 23 5 -4 10 0
10 8 0 11 -6 10 -27 -5 -20 -14 -27 -28 -28 -55 -1 -20 -4 -40 -7 -45 -4 -6 0
-10 7 -10 9 0 9 -3 -2 -10 -13 -8 -12 -10 3 -10 9 0 18 -4 19 -10 4 -28 1 -33
-20 -37 -17 -2 -21 1 -16 9 6 10 5 10 -7 1 -9 -7 -35 -10 -67 -7 -73 6 -76 7
-89 29 -7 11 -12 14 -13 8 0 -7 -9 -13 -20 -13 -11 0 -20 -5 -20 -11 0 -6 -8
-2 -17 10 -10 11 -29 22 -43 24 -14 2 -46 14 -73 26 -26 12 -51 20 -56 17 -5
-3 -6 9 -1 28 6 27 5 33 -6 29 -8 -3 -14 1 -14 8 0 7 -3 9 -6 6 -4 -4 -1 -13
6 -22 18 -21 5 -31 -15 -12 -9 9 -29 24 -45 34 -32 19 -45 39 -30 48 6 4 10
-1 10 -9 0 -19 16 -21 26 -4 4 7 3 8 -4 4 -8 -5 -12 5 -12 33 0 22 5 41 13 44
6 2 -3 4 -20 5 -22 0 -33 -4 -33 -14 0 -8 5 -14 11 -14 8 0 7 -5 -1 -15 -11
-13 -10 -15 6 -9 12 3 6 -6 -14 -23 -30 -26 -32 -31 -18 -42 8 -7 21 -9 27 -5
7 4 9 3 5 -4 -3 -6 1 -18 10 -27 13 -13 19 -13 33 -3 14 11 14 11 3 -3 -11
-15 -9 -20 14 -38 14 -11 30 -18 35 -15 5 3 9 1 9 -5 0 -8 23 -20 53 -27 4 -1
10 -3 15 -4 4 -2 12 -4 17 -5 6 -1 28 -10 50 -20 22 -10 44 -18 49 -16 5 1 13
-4 17 -11 7 -10 9 -10 9 0 0 10 5 10 20 2 14 -8 26 -8 40 0 15 8 18 8 14 -3
-3 -10 4 -16 20 -19 19 -4 23 -1 19 11 -4 14 -3 14 9 1 7 -9 24 -15 38 -14 74
6 100 17 152 64 18 17 36 30 41 30 5 0 6 8 3 17 -4 10 -4 15 -1 11 12 -12 73
64 67 85 -1 4 2 7 7 7 6 0 8 9 6 20 -2 11 0 18 5 15 15 -9 31 34 35 93 2 31 4
57 5 57 1 0 2 19 3 42 2 23 -2 39 -7 35 -6 -3 -6 2 -1 14 8 20 9 33 1 74 -2
14 -5 33 -5 43 -1 12 -5 16 -14 11 -9 -6 -9 -5 0 8 7 8 10 17 8 20 -5 5 -9 21
-21 83 -3 16 -9 34 -13 40 -5 5 -11 23 -15 39 -8 33 -76 158 -106 196 -17 21
-19 22 -14 5 5 -16 4 -17 -5 -5 -6 8 -11 22 -11 30 0 8 -16 31 -35 49 -43 43
-51 66 -34 97 9 18 10 30 1 49 -10 22 -9 25 9 25 11 0 18 4 14 9 -3 5 -1 12 5
16 5 3 10 11 10 16 0 6 -4 8 -9 5 -5 -4 -7 3 -4 14 3 11 9 23 14 26 5 3 6 -2
3 -10 -8 -22 12 -20 34 2 10 10 29 17 41 15 12 -2 20 1 16 6 -6 10 27 7 44 -3
5 -3 11 1 15 9 3 8 12 15 21 15 8 0 14 3 12 8 -1 4 2 8 8 10 21 7 15 -19 -7
-27 -16 -7 -18 -10 -6 -10 9 -1 23 8 31 19 14 21 14 21 20 -1 5 -20 8 -21 23
-8 16 13 17 12 10 -6 -4 -11 -4 -16 0 -12 4 4 13 -1 21 -11 12 -16 13 -16 6 2
-4 14 -2 17 8 14 8 -3 13 -12 11 -19 -2 -8 5 -6 20 6 33 28 68 68 70 80 2 17
8 69 9 91 1 12 -5 32 -12 46 -25 45 -69 108 -77 109 -26 2 -46 9 -51 16 -10
13 -62 34 -71 28 -5 -3 -11 -1 -14 3 -3 5 -28 10 -57 11 -28 1 -56 4 -61 7 -5
3 -12 -3 -15 -15 -6 -22 -18 -27 -28 -11 -4 7 -13 7 -26 0 -11 -6 -17 -15 -14
-21 4 -5 1 -8 -7 -7 -7 2 -12 -2 -11 -8 1 -6 -5 -11 -12 -11 -11 0 -12 4 -4
14 14 16 1 17 -36 3 -15 -6 -23 -15 -19 -21 5 -8 1 -8 -14 0 -22 12 -39 0 -26
-20 4 -7 -4 -10 -22 -7 -22 2 -29 -1 -32 -17 -3 -16 -1 -17 7 -5 9 13 11 13
11 -2 0 -22 -18 -24 -26 -3 -4 8 -10 15 -16 15 -5 0 -6 -4 -3 -10 3 -5 -2 -10
-11 -10 -22 0 -8 -16 21 -24 11 -3 3 -4 -18 -1 -20 2 -35 0 -32 -5 3 -4 0 -10
-5 -12 -14 -4 -23 -55 -11 -62 5 -4 17 1 25 10 9 8 16 11 16 5 0 -16 -37 -33
-45 -21 -3 5 -11 10 -16 10 -6 0 0 -15 12 -32 12 -18 19 -30 14 -26 -4 5 -14
-1 -22 -12 -8 -11 -21 -20 -29 -20 -18 0 -18 -24 0 -39 11 -9 15 -9 19 1 2 7
4 1 3 -14 0 -14 -5 -26 -11 -25 -5 1 -10 -10 -10 -25 0 -14 -4 -30 -9 -35 -5
-4 -7 -3 -3 3 3 6 0 11 -8 11 -8 0 -15 -4 -15 -9 0 -4 5 -8 10 -8 6 0 15 -12
20 -26 6 -15 14 -22 22 -18 7 5 8 3 4 -5 -6 -9 -13 -8 -27 5 -10 9 -19 13 -19
9 0 -5 -7 0 -16 11 -8 10 -13 14 -10 7 4 -6 1 -15 -5 -19 -7 -4 -9 -3 -6 3 4
6 0 16 -8 23 -8 7 -13 16 -10 20 5 9 -39 52 -51 49 -23 -4 -34 3 -34 20 0 11
-9 23 -20 26 -11 4 -18 10 -15 15 3 4 -2 13 -10 20 -8 7 -15 9 -15 4 0 -5 -8
6 -16 23 -9 18 -20 30 -25 27 -5 -3 -24 11 -41 30 -17 20 -38 36 -45 36 -9 0
-11 5 -7 13 6 10 4 10 -7 0 -7 -7 -16 -13 -20 -13 -13 0 -18 29 -7 36 6 4 8 3
4 -4 -3 -6 -2 -13 3 -16 5 -4 8 2 6 11 -1 10 -8 17 -14 15 -18 -4 -8 65 18
118 11 25 19 36 16 24 -4 -14 0 -21 10 -21 10 0 13 7 9 24 -4 14 -2 23 6 23 6
0 8 5 4 11 -5 8 -1 8 14 0 17 -9 23 -7 37 11 9 14 11 24 5 26 -5 2 -10 11 -10
19 0 13 2 13 17 2 11 -10 14 -10 9 -1 -4 7 -1 12 9 12 10 0 13 4 8 13 -11 18
-12 57 -1 50 6 -3 8 -14 5 -24 -3 -11 -1 -19 5 -19 6 0 8 17 6 39 -2 22 0 37
4 35 5 -3 8 4 8 15 0 11 8 25 18 30 10 6 12 11 4 11 -8 0 -10 5 -6 12 21 34
20 136 -2 165 -41 54 -160 89 -209 61z m155 -39 c0 -6 -4 -7 -10 -4 -5 3 -10
11 -10 16 0 6 5 7 10 4 6 -3 10 -11 10 -16z m-95 -29 c-3 -5 2 -10 11 -10 10
0 15 -3 11 -6 -10 -10 -39 5 -32 16 3 5 8 10 11 10 3 0 2 -4 -1 -10z m-38 -31
c-9 -6 -14 -16 -11 -22 4 -7 1 -7 -7 1 -12 11 -11 15 5 28 11 7 22 11 25 8 3
-3 -2 -10 -12 -15z m-37 -28 c0 -5 -7 -12 -16 -15 -14 -5 -15 -4 -4 9 14 17
20 19 20 6z m-136 -20 c3 -5 -2 -15 -12 -22 -15 -12 -16 -12 -5 2 7 9 10 19 6
22 -3 4 -4 7 0 7 3 0 8 -4 11 -9z m267 -5 c14 8 11 -2 -4 -14 -10 -8 -13 -6
-14 11 0 12 1 16 4 9 3 -6 9 -10 14 -6z m-100 -20 c1 5 1 12 0 17 0 4 4 7 10
7 6 0 8 -7 5 -16 -3 -9 -6 -19 -6 -23 0 -4 -14 -7 -30 -6 -26 2 -30 -1 -24
-19 5 -16 3 -18 -6 -10 -18 17 -3 55 18 47 15 -6 16 -5 2 13 -14 19 -14 19 8
0 12 -11 23 -15 23 -10z m76 -49 c6 2 14 -1 18 -6 3 -7 0 -8 -9 -5 -9 3 -17 1
-17 -5 -3 -26 -4 -30 -11 -37 -5 -4 -8 -12 -8 -18 0 -6 11 2 25 17 14 15 29
27 32 27 4 0 -3 -10 -15 -22 -11 -13 -22 -27 -22 -33 -1 -5 -8 -21 -16 -35
-10 -20 -13 -21 -14 -7 0 10 -4 16 -9 13 -5 -4 -7 4 -3 16 4 17 2 20 -12 15
-11 -4 -15 -3 -11 4 4 6 14 8 22 4 13 -4 14 -3 3 10 -10 12 -10 15 0 15 10 0
10 3 0 15 -15 18 -44 20 -34 3 5 -10 4 -10 -6 -1 -10 9 -10 15 4 28 9 9 20 13
26 10 6 -4 10 -3 9 2 -5 30 3 35 19 12 9 -14 22 -24 29 -22z m-340 -22 c0 -8
-4 -12 -9 -9 -4 3 -8 0 -8 -7 0 -7 -3 -9 -6 -6 -4 4 -1 13 6 22 15 19 17 19
17 0z m106 -45 c3 -11 1 -18 -3 -15 -5 3 -11 -1 -14 -7 -3 -10 -1 25 3 40 3 8
9 -1 14 -18z m30 3 c-6 -16 -5 -17 12 -3 10 8 16 10 12 3 -4 -7 0 -16 10 -22
16 -9 15 -10 -7 -8 -36 2 -69 47 -35 47 10 0 12 -6 8 -17z m87 13 c0 -2 -7 -7
-16 -10 -8 -3 -12 -2 -9 4 6 10 25 14 25 6z m50 0 c0 -3 -4 -8 -10 -11 -5 -3
-10 -1 -10 4 0 6 5 11 10 11 6 0 10 -2 10 -4z m-150 -60 c0 -9 -9 -14 -20 -13
-11 1 -20 5 -20 10 0 5 7 7 15 3 8 -3 15 -1 15 4 0 6 2 10 5 10 3 0 5 -6 5
-14z m126 -25 c-15 -15 -24 -30 -20 -34 3 -3 -4 -3 -15 0 -27 7 -38 23 -12 18
22 -4 46 19 36 34 -4 7 1 8 11 4 13 -5 15 -3 9 7 -6 9 -4 11 4 5 9 -5 6 -15
-13 -34z m-241 -12 c-9 -16 -22 -29 -30 -29 -15 0 -18 -8 -16 -45 l1 -20 -9
20 c-6 12 -10 14 -10 6 -1 -8 -4 -12 -7 -9 -9 9 27 58 42 58 19 0 18 19 -2 27
-14 5 -12 8 7 19 33 17 42 8 24 -27z m164 4 c3 -2 -6 -2 -20 -1 -15 2 -23 -2
-21 -9 1 -8 -8 -13 -21 -13 -33 0 -40 -10 -20 -32 9 -10 12 -18 7 -18 -5 0 -4
-4 3 -8 8 -5 9 -13 3 -22 -7 -12 -12 -12 -22 -2 -8 8 -8 12 -1 12 6 0 9 9 6
20 -6 23 -23 27 -23 5 0 -9 -6 -12 -16 -8 -13 5 -15 2 -10 -15 6 -17 4 -21 -8
-16 -12 5 -13 10 -5 25 5 10 14 19 20 19 6 0 7 5 3 12 -4 6 -3 8 4 4 6 -3 13
3 17 14 6 18 17 24 37 21 5 0 13 8 20 19 10 15 15 17 28 7 8 -6 17 -13 19 -14z
m-119 -9 c0 -2 -7 -4 -15 -4 -8 0 -15 4 -15 10 0 5 7 7 15 4 8 -4 15 -8 15
-10z m-127 -19 c-3 -9 -8 -14 -10 -11 -3 3 -2 9 2 15 9 16 15 13 8 -4z m347
-4 c0 -3 -9 -12 -20 -19 -12 -7 -20 -8 -20 -2 0 5 5 10 11 10 6 0 9 7 6 14 -4
10 -1 13 9 9 7 -3 14 -8 14 -12z m-94 -45 c-2 -6 -5 -2 -6 9 -1 18 -2 18 -14
-4 -11 -20 -14 -21 -19 -7 -4 10 -3 15 3 11 5 -3 13 6 16 22 l7 27 9 -24 c5
-13 7 -28 4 -34z m-41 34 c-3 -5 -12 -10 -18 -10 -7 0 -6 4 3 10 19 12 23 12
15 0z m-152 -15 c4 -8 3 -16 -1 -19 -4 -3 -9 4 -9 15 -2 23 3 25 10 4z m243
-17 c4 -7 4 -10 -1 -6 -4 4 -17 -7 -29 -24 -11 -17 -28 -33 -36 -35 -12 -4
-12 -3 -2 5 8 5 13 12 13 16 -3 23 0 30 7 18 6 -9 12 -6 20 13 13 28 18 30 28
13z m139 2 c-3 -5 -12 -10 -18 -10 -7 0 -6 4 3 10 19 12 23 12 15 0z m-375
-59 c-8 -16 -8 -27 2 -43 7 -13 11 -27 10 -32 -2 -4 3 -15 10 -24 12 -13 11
-14 -8 -2 -13 8 -20 20 -16 32 3 12 -1 18 -12 18 -10 0 -15 -4 -12 -8 2 -4 -4
-8 -15 -8 -11 0 -17 5 -15 11 2 5 8 9 14 8 9 -2 29 36 23 45 -2 4 24 30 27 27
2 -2 -1 -13 -8 -24z m148 4 c-3 -3 -9 2 -12 12 -6 14 -5 15 5 6 7 -7 10 -15 7
-18z m-21 -20 c10 -2 24 -4 32 -4 7 -1 11 -7 8 -16 -4 -8 -2 -17 3 -20 6 -4
10 -12 10 -18 0 -7 -4 -6 -10 3 -8 13 -10 13 -10 -2 0 -9 6 -19 13 -22 6 -3 2
-3 -10 0 -17 4 -22 0 -25 -17 -3 -21 -9 -24 -68 -32 -22 -3 -25 0 -25 25 -1
15 3 28 8 28 5 0 7 -6 4 -14 -3 -7 -1 -18 5 -24 12 -12 41 -4 32 9 -3 5 1 6 9
3 8 -3 18 -1 21 4 3 6 -1 13 -10 16 -8 3 -12 11 -9 16 4 7 -3 9 -19 6 -15 -3
-24 -1 -21 4 3 5 1 11 -5 15 -5 3 -10 1 -10 -5 0 -6 -5 -8 -11 -4 -6 3 -7 9
-3 13 5 3 9 13 9 21 0 9 7 14 19 12 15 -3 18 1 13 18 -5 21 -5 21 13 5 10 -9
27 -18 37 -20z m-254 11 c3 -8 0 -20 -8 -26 -11 -9 -13 -7 -10 7 2 10 4 21 4
26 1 12 8 8 14 -7z m158 5 c-8 -5 -10 -14 -6 -22 6 -11 5 -11 -5 -2 -14 12 -6
33 13 33 8 0 7 -3 -2 -9z m1024 -31 c3 -6 -1 -7 -9 -4 -18 7 -21 14 -7 14 6 0
13 -4 16 -10z m-1060 -72 c5 4 5 1 1 -5 -6 -12 5 -18 27 -14 12 2 7 -23 -9
-44 -15 -19 -15 -19 -10 7 3 20 0 27 -15 31 -10 3 -22 0 -26 -5 -3 -6 -1 -8 5
-4 6 3 14 1 18 -5 4 -8 3 -9 -4 -5 -8 5 -12 -1 -12 -14 0 -14 4 -19 13 -14 8
5 8 2 -2 -9 -7 -9 -11 -17 -7 -18 43 -7 81 4 71 21 -3 5 0 12 7 16 17 11 48
12 42 2 -3 -4 -2 -13 1 -19 4 -6 16 1 31 18 22 26 23 26 19 5 -2 -15 1 -22 11
-22 8 0 13 -4 10 -9 -3 -4 1 -17 9 -27 10 -14 14 -15 15 -5 0 11 6 8 20 -7 21
-22 36 -30 25 -13 -3 5 -1 12 4 15 5 4 12 2 16 -4 4 -6 11 -7 17 -4 7 4 8 2 4
-5 -4 -6 -11 -9 -15 -7 -4 3 -15 -6 -25 -19 -10 -14 -24 -22 -30 -19 -6 3 0
-4 12 -15 17 -14 29 -18 40 -12 10 4 23 6 30 4 17 -6 15 12 -4 31 -8 9 -13 16
-11 16 3 0 14 3 24 6 15 5 16 4 3 -6 -12 -10 -11 -11 8 -7 13 3 21 3 18 0 -3
-4 -1 -12 6 -20 9 -11 8 -13 -2 -11 -8 2 -14 -4 -15 -12 0 -10 -10 -15 -31
-14 -27 1 -31 -2 -26 -19 5 -20 6 -20 13 -1 5 13 8 15 8 4 1 -9 -4 -21 -10
-27 -8 -8 -5 -17 10 -32 12 -12 21 -27 20 -33 0 -7 -5 -3 -11 8 -10 21 -56 49
-65 40 -3 -2 0 -13 6 -23 6 -10 11 -12 11 -5 0 6 5 12 11 12 5 0 7 -5 3 -12
-4 -7 -3 -8 4 -4 7 4 12 1 12 -7 0 -8 -7 -17 -15 -21 -22 -8 -46 4 -44 23 3
34 -1 52 -11 46 -8 -5 -8 -11 0 -20 7 -8 7 -16 2 -19 -6 -3 -12 1 -16 9 -3 8
-12 15 -21 15 -13 0 -12 3 3 18 12 13 22 16 34 10 9 -4 26 -8 37 -8 17 0 19 4
12 22 -4 12 -14 24 -22 27 -11 3 -11 1 1 -14 9 -11 10 -16 3 -11 -7 4 -13 3
-13 -3 0 -6 -8 -7 -17 -4 -15 6 -15 7 -1 12 15 5 15 8 1 26 -12 16 -14 16 -10
3 4 -11 -1 -23 -13 -31 -11 -8 -17 -17 -13 -20 3 -4 -2 -7 -12 -7 -14 0 -15 3
-6 14 7 9 8 17 2 20 -5 3 -11 1 -13 -6 -3 -7 -7 -5 -11 6 -4 10 -3 15 3 11 6
-3 10 -1 10 6 0 7 7 4 16 -7 15 -19 16 -19 9 1 -4 11 -8 26 -8 33 0 6 -3 12
-7 12 -3 0 -12 -6 -19 -12 -10 -11 -11 -9 -5 6 6 15 4 17 -6 11 -9 -5 -11 -4
-6 3 4 8 0 12 -11 12 -27 0 -47 -16 -38 -30 5 -9 4 -11 -4 -6 -7 4 -10 13 -8
19 2 7 -3 17 -11 23 -12 9 -12 13 -2 19 9 5 11 4 6 -3 -4 -7 -2 -12 3 -12 6 0
11 6 11 13 0 8 3 9 8 1 9 -13 42 -14 42 -1 0 5 -7 7 -15 3 -13 -4 -14 -2 -5
14 7 14 7 20 0 20 -5 0 -10 -5 -10 -11 0 -7 -10 -9 -25 -7 -14 3 -28 1 -31 -3
-3 -5 -11 -9 -17 -9 -7 0 -6 4 3 10 13 8 12 10 -2 10 -10 0 -18 -4 -18 -10 0
-5 -4 -10 -10 -10 -5 0 -9 6 -7 13 1 6 -5 12 -13 12 -10 0 -16 -14 -18 -47 -2
-27 -1 -48 3 -48 3 0 19 9 34 21 24 17 32 19 47 9 16 -10 17 -11 2 -6 -24 7
-49 -3 -41 -18 3 -6 3 -8 -2 -4 -4 4 -17 1 -29 -7 -24 -18 -36 -19 -36 -4 0 5
6 7 13 3 6 -4 8 -3 4 1 -11 13 -38 15 -31 3 6 -9 -12 -27 -28 -28 -8 0 -3 34
7 50 3 6 -1 13 -9 16 -16 6 -23 25 -8 23 19 -3 26 2 13 10 -8 5 -16 17 -17 25
-1 9 2 14 7 10 5 -3 7 -10 4 -15 -4 -5 -2 -9 4 -9 17 0 23 20 11 35 -10 12 -9
15 4 15 10 0 15 -4 12 -8 -2 -4 0 -14 5 -22 9 -13 10 -13 8 0 -3 31 1 41 17
38 10 -2 19 4 21 12 4 13 3 13 -6 0 -6 -8 -11 -10 -11 -4 0 5 7 19 15 30 17
23 19 34 5 34 -6 0 -15 -10 -20 -22 -5 -14 -9 -17 -10 -8 0 13 -1 13 -10 0 -5
-8 -10 -10 -10 -4 0 5 5 15 12 22 16 16 -4 16 -22 0 -12 -11 -12 -10 -1 4 18
24 53 27 72 7 9 -10 20 -15 24 -11z m935 7 c0 -8 -4 -15 -10 -15 -5 0 -7 7 -4
15 4 8 8 15 10 15 2 0 4 -7 4 -15z m-1041 -42 c1 -7 -9 -12 -21 -12 -17 1 -19
2 -5 6 18 5 24 23 7 23 -5 0 -6 8 -3 17 6 15 7 15 14 -3 4 -10 8 -25 8 -31z
m1284 14 c8 4 7 1 -1 -9 -10 -13 -10 -18 -1 -24 8 -4 9 -3 5 4 -4 7 -2 12 3
12 6 0 11 -4 11 -10 0 -5 7 -7 15 -4 8 4 12 11 8 18 -11 17 -12 37 -2 30 5 -3
7 -9 4 -14 -3 -4 2 -13 10 -20 7 -6 11 -19 8 -27 -5 -12 -2 -15 9 -10 21 8 30
-3 17 -20 -13 -14 -33 -18 -25 -4 3 5 -3 11 -14 14 -27 7 -25 -5 5 -41 13 -16
22 -32 18 -36 -12 -11 -23 -6 -23 11 0 20 -59 75 -72 67 -4 -3 -8 -12 -8 -20
0 -8 -5 -14 -11 -14 -5 0 -7 5 -3 11 5 8 1 8 -13 0 -11 -6 -23 -8 -25 -5 -3 2
-11 -2 -18 -11 -10 -13 -8 -14 22 -12 18 2 39 6 46 11 7 4 15 1 18 -9 4 -10
13 -13 24 -10 10 3 22 0 26 -6 4 -8 3 -9 -4 -5 -7 4 -12 3 -12 -3 0 -5 -10 -7
-22 -4 -42 10 -83 9 -117 -3 -51 -17 -76 -6 -93 41 -1 6 -6 9 -10 8 -5 -2 -8
2 -8 7 0 6 -5 10 -11 10 -8 0 -8 -5 1 -15 7 -8 17 -12 23 -8 6 3 7 1 3 -5 -4
-6 -13 -9 -21 -5 -11 4 -13 1 -8 -13 5 -13 3 -16 -10 -11 -9 3 -19 2 -22 -3
-4 -6 3 -10 14 -10 12 0 21 -4 21 -10 0 -6 -9 -6 -26 0 -38 15 -44 13 -42 -16
2 -21 4 -23 14 -10 9 13 13 13 31 1 19 -14 21 -13 27 11 4 16 11 22 19 17 7
-4 5 2 -3 12 -13 16 -13 18 0 13 8 -2 17 -15 18 -27 3 -17 0 -21 -9 -15 -9 5
-10 2 -5 -12 4 -10 4 -15 0 -11 -4 4 -13 2 -21 -4 -10 -9 -17 -8 -28 1 -8 7
-15 8 -15 3 0 -6 10 -15 23 -22 12 -6 14 -9 5 -7 -11 4 -18 0 -18 -9 0 -8 -4
-15 -8 -15 -5 0 -9 -7 -9 -15 0 -11 4 -12 14 -3 11 8 12 7 7 -5 -3 -8 -12 -18
-19 -21 -8 -3 -12 -14 -10 -25 3 -14 -1 -18 -11 -14 -12 4 -14 -3 -12 -37 2
-24 9 -45 16 -48 7 -2 10 2 6 12 -5 12 -2 15 10 10 9 -4 15 -12 13 -18 -2 -6
0 -21 4 -33 8 -21 7 -22 -11 -11 -14 9 -16 14 -7 20 8 5 7 8 -5 8 -26 0 -22
-15 10 -36 15 -9 35 -27 46 -38 10 -12 22 -20 27 -18 5 1 9 -5 9 -13 0 -8 9
-20 20 -27 11 -7 20 -17 20 -22 0 -5 6 -17 14 -25 15 -17 66 -106 66 -115 0
-3 -5 -6 -11 -6 -5 0 -8 4 -5 9 4 5 -2 8 -11 7 -20 -3 -28 -22 -14 -31 6 -3
11 -3 11 2 0 4 11 9 25 9 14 1 25 -2 25 -6 0 -5 3 -16 7 -26 5 -13 3 -15 -7
-9 -8 5 -11 4 -6 -3 3 -5 0 -13 -6 -16 -7 -3 -3 -3 9 0 18 4 22 2 17 -10 -3
-9 -2 -16 3 -16 16 0 34 -72 22 -86 -7 -8 -6 -15 2 -20 8 -4 9 -3 5 4 -4 7 -2
12 4 12 6 0 8 -11 6 -26 -3 -14 1 -36 9 -48 14 -21 7 -51 -11 -44 -13 5 -16
-65 -3 -72 7 -5 5 -9 -6 -13 -9 -4 -13 -3 -10 3 3 6 1 10 -5 10 -6 0 -8 4 -5
10 3 6 -1 7 -9 4 -22 -8 -30 19 -15 48 6 13 8 20 4 16 -5 -5 -15 1 -22 12 -8
12 -20 17 -26 13 -8 -5 -8 -2 0 9 7 8 9 19 5 23 -4 5 -2 5 5 1 6 -3 14 -2 18
4 4 6 11 8 16 5 5 -4 9 -2 9 4 0 6 -13 8 -32 5 -26 -5 -30 -3 -18 6 11 8 12
13 3 16 -7 3 -15 21 -19 40 -5 26 -2 40 12 55 17 19 17 20 -2 14 -18 -6 -18
-6 1 11 17 14 17 16 3 11 -12 -4 -18 -1 -18 9 0 8 -4 12 -10 9 -5 -3 -10 -2
-10 3 0 6 -9 8 -20 5 -11 -3 -18 -9 -15 -13 3 -5 1 -11 -4 -14 -9 -6 -4 54 5
63 2 2 11 -2 20 -10 16 -13 16 -12 3 8 -12 21 -15 21 -31 6 -13 -11 -18 -12
-18 -3 0 6 -6 10 -13 7 -8 -3 -14 1 -14 9 0 7 4 11 9 8 4 -3 8 -1 8 4 0 16
-27 21 -40 9 -10 -9 -11 -9 -6 1 11 19 15 62 5 56 -5 -3 -9 3 -10 13 0 10 -3
13 -6 6 -8 -21 -18 -15 -19 12 -1 14 1 23 5 20 4 -2 8 3 8 11 0 10 -7 8 -24
-8 -14 -13 -23 -18 -21 -13 2 6 -1 11 -7 13 -5 1 -11 -2 -11 -8 -1 -5 -3 -13
-4 -17 -1 -5 -2 -12 -1 -18 1 -5 -5 -2 -13 8 -8 10 -12 33 -11 52 2 19 -1 35
-6 35 -6 0 -7 -9 -3 -22 6 -19 5 -20 -8 -8 -21 22 -50 106 -52 150 0 21 -4 36
-8 34 -4 -2 -9 0 -13 6 -3 5 -1 10 5 10 6 0 8 5 5 10 -9 14 18 13 33 -2 18
-18 42 -19 35 -1 -5 13 -2 13 15 4 14 -7 23 -8 27 -1 4 6 3 10 -2 9 -22 -4
-35 2 -30 14 3 7 -3 13 -13 13 -10 0 -17 -3 -15 -6 10 -17 -12 -25 -35 -13
-18 9 -20 13 -7 13 9 0 17 5 17 10 0 6 -4 10 -9 10 -10 0 -9 14 4 44 5 12 3
21 -6 27 -11 7 -9 9 8 9 12 0 24 4 28 9 3 6 -3 8 -13 6 -11 -2 -19 3 -19 11 0
8 9 12 21 10 22 -3 32 -21 17 -30 -6 -4 -7 -14 -4 -23 5 -12 3 -14 -7 -8 -10
6 -11 4 -4 -6 5 -8 7 -21 6 -29 -2 -12 7 -16 33 -17 34 -1 47 10 23 20 -7 3
-2 6 11 6 13 1 22 4 18 7 -10 10 -58 -5 -52 -16 3 -6 2 -10 -3 -10 -14 0 -22
39 -10 47 7 3 8 1 4 -5 -4 -7 -2 -12 3 -12 11 0 15 13 12 36 -1 6 10 16 24 22
22 10 23 14 14 42 -6 16 -15 27 -20 24 -5 -3 -9 2 -9 11 0 9 -5 13 -10 10 -6
-4 -8 -11 -5 -16 3 -5 -1 -6 -9 -3 -21 8 -20 38 2 55 14 11 15 11 5 -1 -7 -8
-13 -21 -13 -29 0 -11 5 -8 16 7 9 13 13 29 10 37 -3 8 0 17 6 21 7 4 8 3 4
-4 -4 -7 -3 -12 2 -12 6 0 8 -10 5 -22 -4 -19 -3 -20 6 -8 6 8 11 24 12 35 0
11 3 14 6 7 2 -6 8 -10 12 -8 4 3 8 -1 8 -9 0 -8 -5 -15 -11 -15 -6 0 -17 -9
-24 -20 -7 -12 -8 -20 -2 -20 5 0 10 -8 11 -17 0 -15 2 -15 7 -3 4 8 15 15 25
15 9 0 16 5 15 10 -2 6 -7 9 -11 7 -5 -1 -6 2 -2 8 3 6 10 8 15 5 5 -3 10 7
12 22 2 23 8 28 31 28 15 -1 27 5 27 12 0 7 5 13 11 13 5 0 8 -4 5 -9 -10 -15
19 -19 38 -5 11 7 23 11 28 8 11 -7 60 -13 54 -7 -7 7 18 32 27 26 4 -2 7 4 7
14 1 17 1 17 11 0 6 -10 15 -14 22 -10z m147 2 c0 -5 -4 -9 -8 -9 -5 0 -9 7
-9 15 0 8 4 12 9 9 4 -3 8 -9 8 -15z m-246 -5 c9 -24 2 -26 -12 -4 -7 11 -8
20 -3 20 5 0 12 -7 15 -16z m-1224 -45 c-8 -3 -22 -4 -30 0 -12 4 -12 6 2 9
15 3 16 7 7 25 -10 20 -9 19 12 -3 20 -21 21 -26 9 -31z m1104 35 c3 -8 2 -12
-4 -9 -6 3 -10 10 -10 16 0 14 7 11 14 -7z m-1262 -40 c-18 -23 -30 -25 -16
-2 9 13 10 18 13 41 1 9 4 8 10 -2 6 -10 4 -22 -7 -37z m1191 31 c-3 -9 -8
-14 -10 -11 -3 3 -2 9 2 15 9 16 15 13 8 -4z m-963 1 c0 -3 -4 -8 -10 -11 -5
-3 -10 -1 -10 4 0 6 5 11 10 11 6 0 10 -2 10 -4z m260 -10 c0 -3 -4 -8 -10
-11 -5 -3 -10 -1 -10 4 0 6 5 11 10 11 6 0 10 -2 10 -4z m1156 -21 c-3 -8 0
-15 6 -15 7 0 6 -5 -2 -15 -7 -8 -18 -15 -24 -15 -6 0 -4 5 4 10 11 7 11 10 2
10 -10 0 -10 5 -2 20 12 23 25 27 16 5z m-439 -17 c-3 -8 -6 -5 -6 6 -1 11 2
17 5 13 3 -3 4 -12 1 -19z m390 -1 c-3 -7 8 -24 24 -36 23 -19 27 -26 18 -37
-9 -11 -9 -14 0 -14 7 0 9 -4 6 -10 -3 -5 -14 -10 -23 -10 -10 0 -13 3 -7 8
14 10 17 32 4 32 -5 0 -7 5 -3 12 5 7 3 8 -6 3 -8 -5 -18 -1 -27 10 -19 27
-16 9 3 -21 9 -13 14 -27 10 -31 -3 -3 -6 -1 -6 5 0 6 -6 10 -12 8 -7 -1 -10
-1 -6 1 4 3 2 15 -4 29 -9 20 -8 28 8 44 23 23 28 24 21 7z m-113 -15 c3 -5
-1 -9 -9 -9 -8 0 -15 4 -15 9 0 4 4 8 9 8 6 0 12 -4 15 -8z m-1407 -24 c-3 -8
-6 -5 -6 6 -1 11 2 17 5 13 3 -3 4 -12 1 -19z m578 12 c3 -5 1 -10 -4 -10 -6
0 -11 5 -11 10 0 6 2 10 4 10 3 0 8 -4 11 -10z m-499 -29 c-3 -5 1 -11 9 -15
10 -3 14 -16 13 -38 -3 -31 -1 -33 29 -33 18 0 38 -6 44 -12 11 -11 11 -13 0
-13 -7 0 -9 -4 -6 -10 3 -5 1 -10 -4 -10 -6 0 -11 5 -11 11 0 5 -5 7 -10 4 -8
-5 -7 -11 1 -21 6 -7 16 -11 22 -7 6 3 7 1 3 -6 -4 -6 -12 -8 -18 -5 -7 5 -9
1 -5 -9 4 -11 2 -14 -9 -10 -9 3 -12 12 -8 25 5 15 3 19 -7 13 -11 -6 -12 -5
-1 6 24 26 12 40 -13 15 -14 -14 -25 -29 -25 -34 0 -5 -9 -17 -21 -28 -21 -19
-21 -18 -40 5 -23 28 -25 20 -4 -13 13 -20 13 -23 0 -23 -8 0 -15 8 -15 17 0
9 -5 21 -12 28 -12 12 -11 13 30 16 7 1 17 7 21 14 7 11 9 10 14 -2 4 -10 1
-16 -8 -16 -8 0 -15 -4 -15 -10 0 -5 4 -10 9 -10 14 0 33 28 26 40 -3 5 -1 10
5 10 6 0 8 5 5 10 -3 6 1 10 10 10 9 0 13 5 10 10 -4 6 -11 7 -17 4 -7 -4 -8
-2 -4 4 8 13 -6 16 -18 5 -4 -5 -13 -8 -19 -8 -6 0 -14 -10 -17 -23 -3 -13 -9
-24 -13 -25 -11 -3 -31 33 -23 40 3 4 6 0 6 -8 0 -12 2 -12 9 0 11 18 -8 40
-29 34 -10 -3 -8 1 4 11 15 12 16 16 5 16 -10 1 -8 4 5 11 14 9 15 13 6 19 -7
5 0 7 18 7 28 -2 31 -4 26 -27 -4 -18 -3 -21 4 -11 6 8 15 10 23 6 9 -6 11 -3
6 9 -7 17 -2 36 9 36 3 0 3 -4 0 -9z m144 0 c0 -5 -9 -11 -19 -14 -14 -3 -18
-1 -14 9 6 15 33 19 33 5z m808 -34 c2 -10 -1 -17 -7 -17 -6 0 -8 8 -5 18 5
16 4 16 -9 -1 -10 -12 -17 -14 -22 -8 -3 6 -1 11 5 11 6 0 9 4 6 9 -4 5 2 8
11 7 10 -2 19 -10 21 -19z m-538 2 c0 -5 5 -7 12 -3 7 4 8 3 4 -4 -10 -16 -23
-15 -30 3 -3 8 -1 15 4 15 6 0 10 -5 10 -11z m574 -5 c4 -10 1 -14 -6 -12 -15
5 -23 28 -10 28 5 0 13 -7 16 -16z m-465 -28 c7 -8 8 -17 3 -20 -6 -3 -12 3
-15 14 -6 24 -4 25 12 6z m86 5 c3 -5 1 -12 -5 -16 -5 -3 -10 1 -10 9 0 18 6
21 15 7z m-342 -21 c3 -11 1 -20 -4 -20 -5 0 -9 9 -9 20 0 11 2 20 4 20 2 0 6
-9 9 -20z m950 7 c3 -7 -3 -13 -14 -14 -15 -1 -16 1 -6 12 15 18 14 18 20 2z
m77 3 c0 -5 -5 -10 -11 -10 -5 0 -7 5 -4 10 3 6 8 10 11 10 2 0 4 -4 4 -10z
m-1170 -10 c0 -5 -2 -10 -4 -10 -3 0 -8 5 -11 10 -3 6 -1 10 4 10 6 0 11 -4
11 -10z m-232 -25 c-3 -3 -9 2 -12 12 -6 14 -5 15 5 6 7 -7 10 -15 7 -18z
m622 -4 c0 -14 -63 -8 -67 6 -2 6 4 13 14 15 21 5 53 -8 53 -21z m-645 -11
c-3 -5 -11 -10 -16 -10 -6 0 -7 5 -4 10 3 6 11 10 16 10 6 0 7 -4 4 -10z m671
-6 c0 -9 5 -19 13 -22 8 -2 11 0 7 6 -3 6 4 9 18 8 14 0 22 -6 19 -14 -4 -8 1
-10 13 -6 14 4 16 3 5 -4 -7 -5 -22 -7 -34 -4 -14 4 -18 2 -12 -7 4 -7 18 -11
31 -8 17 3 22 1 16 -7 -9 -12 32 -58 42 -48 3 3 5 -16 4 -42 -1 -26 -4 -43 -6
-37 -2 6 -9 8 -14 5 -7 -4 -8 -2 -4 4 4 7 1 12 -6 13 -10 0 -10 2 0 6 22 9 13
33 -14 33 -15 0 -23 4 -19 11 4 6 -1 16 -11 24 -14 10 -21 10 -26 2 -6 -9 -8
-9 -8 0 0 6 5 15 12 19 7 5 2 15 -17 30 -18 14 -26 28 -22 38 8 21 15 21 13 0z
m-649 -16 c1 -12 -3 -29 -10 -37 -10 -12 -9 -14 6 -8 9 4 17 2 17 -4 0 -7 -10
-9 -27 -4 -16 4 -33 8 -40 8 -7 0 -10 4 -7 9 3 5 14 6 25 3 13 -4 19 -1 20 9
1 9 3 21 4 26 1 6 3 12 4 15 3 12 7 3 8 -17z m623 2 c0 -5 -4 -10 -10 -10 -5
0 -10 5 -10 10 0 6 5 10 10 10 6 0 10 -4 10 -10z m591 -21 c-5 -13 -10 -19
-10 -12 -1 15 10 45 15 40 3 -2 0 -15 -5 -28z m-382 -3 c8 -10 9 -16 1 -21 -5
-3 -10 1 -10 10 0 9 -4 13 -10 10 -5 -3 -10 -1 -10 4 0 15 15 14 29 -3z m-674
-24 c-3 -3 -11 0 -18 7 -9 10 -8 11 6 5 10 -3 15 -9 12 -12z m605 -2 c6 -11 7
-20 2 -20 -6 0 -12 9 -15 20 -3 11 -3 20 -1 20 2 0 8 -9 14 -20z m-910 6 c0
-3 -4 -8 -10 -11 -5 -3 -10 -1 -10 4 0 6 5 11 10 11 6 0 10 -2 10 -4z m716
-19 c14 17 15 15 11 -15 l-4 -32 29 27 c15 15 28 21 28 15 0 -7 -5 -12 -11
-12 -8 0 -7 -6 2 -17 12 -16 12 -17 -2 -6 -15 12 -29 8 -29 -7 0 -4 9 -17 20
-30 18 -21 25 -20 21 3 -1 5 3 6 8 3 5 -4 9 -15 8 -26 -1 -10 -4 -17 -8 -14
-4 2 -10 -5 -14 -16 -3 -11 -12 -20 -18 -20 -21 0 -40 17 -33 29 4 6 12 9 17
5 5 -3 7 -10 4 -15 -4 -5 -1 -9 4 -9 26 0 7 29 -29 45 -39 18 -68 41 -35 29
11 -5 14 -2 9 12 -5 15 -4 16 4 4 6 -8 9 -17 6 -21 -2 -4 3 -9 11 -13 15 -5
31 11 21 21 -3 4 -6 0 -6 -8 -1 -8 -8 -1 -16 14 -12 23 -18 26 -29 17 -12 -10
-13 -8 -10 10 3 18 2 20 -10 10 -10 -8 -15 -8 -21 2 -4 7 -4 10 1 6 4 -4 14 0
23 8 14 14 16 14 24 -1 9 -15 11 -15 24 2z m-636 -1 c0 -3 -4 -8 -10 -11 -5
-3 -10 -1 -10 4 0 6 5 11 10 11 6 0 10 -2 10 -4z m180 -49 c-10 -9 -12 -8 -7
5 3 10 2 20 -3 23 -6 4 -10 -2 -10 -11 0 -10 -3 -15 -6 -11 -3 3 -3 15 1 27
l7 22 15 -22 c12 -17 13 -24 3 -33z m35 43 c-3 -5 -1 -10 6 -10 7 0 10 -3 6
-6 -9 -9 -28 6 -22 17 4 5 8 9 11 9 3 0 2 -4 -1 -10z m657 -43 c-6 -22 -7 -20
-16 16 -6 24 -5 26 7 16 8 -8 12 -22 9 -32z m343 22 c11 -16 1 -19 -13 -3 -7
8 -8 14 -3 14 5 0 13 -5 16 -11z m-1175 -31 c0 -11 -7 -18 -17 -18 -15 0 -16
2 -3 10 13 9 13 10 0 10 -9 0 -21 -5 -28 -12 -9 -9 -15 -9 -23 -1 -8 8 -6 11
7 10 11 -1 18 3 17 8 -1 6 10 10 23 10 16 0 24 -6 24 -17z m70 12 c0 -5 -5
-10 -11 -10 -5 0 -7 5 -4 10 3 6 8 10 11 10 2 0 4 -4 4 -10z m-45 -9 c-3 -5
-1 -12 5 -16 5 -3 10 -11 10 -18 0 -6 -6 -2 -14 8 -13 18 -13 35 0 35 3 0 3
-4 -1 -9z m96 -15 c0 -6 2 -19 4 -29 2 -11 0 -16 -3 -12 -4 4 -8 11 -8 16 -1
5 -2 11 -3 14 0 3 -10 1 -20 -5 -20 -10 -24 2 -8 27 9 14 37 6 38 -11z m743
16 c3 -5 -1 -9 -9 -9 -8 0 -15 4 -15 9 0 4 4 8 9 8 6 0 12 -4 15 -8z m-154 -6
c0 -3 -4 -8 -10 -11 -5 -3 -10 -1 -10 4 0 6 5 11 10 11 6 0 10 -2 10 -4z m23
-21 c-3 -9 -8 -14 -10 -11 -3 3 -2 9 2 15 9 16 15 13 8 -4z m97 -10 c0 -9 -6
-12 -15 -9 -8 4 -15 10 -15 15 0 5 7 9 15 9 8 0 15 -7 15 -15z m40 5 c0 -5 -7
-7 -15 -4 -8 4 -15 8 -15 10 0 2 7 4 15 4 8 0 15 -4 15 -10z m-885 -16 c-5 18
-4 19 12 4 10 -8 24 -13 32 -10 10 3 12 0 8 -12 -4 -9 -3 -14 2 -11 5 3 12 1
16 -5 3 -5 12 -10 18 -10 8 0 8 3 -1 9 -11 7 -11 9 1 14 8 3 14 0 13 -6 -7
-45 -56 -47 -97 -4 -16 16 -29 35 -29 40 0 6 7 2 16 -9 15 -19 16 -19 9 0z
m920 6 c3 -5 1 -10 -6 -10 -7 0 -4 -7 7 -15 10 -8 14 -15 7 -15 -6 0 -15 5
-18 10 -3 6 -13 10 -21 10 -8 0 -14 -4 -14 -10 0 -5 3 -9 8 -9 20 3 30 -3 35
-21 4 -15 10 -18 24 -13 15 6 16 4 6 -8 -19 -23 8 -59 30 -41 12 10 16 10 21
-3 3 -10 2 -13 -5 -10 -5 4 -16 2 -23 -4 -10 -9 -15 -8 -20 4 -3 9 -10 14 -15
10 -5 -3 -12 -1 -16 5 -4 6 -11 8 -16 5 -5 -4 -9 -1 -9 5 0 7 -7 9 -16 6 -14
-5 -15 -4 -5 8 8 10 9 16 1 21 -6 3 -8 11 -5 16 4 5 2 9 -3 9 -6 0 -8 10 -6
23 4 20 4 20 -5 2 -4 -11 -5 -27 -1 -35 13 -26 1 -42 -17 -24 -13 12 -13 18
-4 24 9 5 10 10 2 14 -6 4 -11 14 -11 22 0 8 4 13 9 9 5 -3 12 -1 15 3 3 5 18
7 32 4 19 -3 25 -1 20 7 -4 6 -3 11 3 11 5 0 13 -4 16 -10z m-1028 -32 c-3 -8
-6 -5 -6 6 -1 11 2 17 5 13 3 -3 4 -12 1 -19z m888 -6 c-3 -3 -11 0 -18 7 -9
10 -8 11 6 5 10 -3 15 -9 12 -12z m-212 -6 c3 -8 0 -17 -7 -19 -10 -4 -12 1
-9 14 6 23 9 24 16 5z m135 6 c13 11 14 11 8 -1 -7 -10 -3 -12 13 -6 11 3 21
2 21 -3 0 -5 12 -9 26 -8 19 1 28 -5 30 -17 1 -9 -2 -15 -7 -11 -5 3 -7 10 -4
15 4 5 1 9 -4 9 -6 0 -11 -6 -12 -12 0 -10 -2 -10 -6 0 -4 10 -9 9 -19 -5 -9
-11 -13 -13 -12 -4 2 7 -3 16 -11 18 -9 4 -11 0 -6 -16 3 -11 3 -21 -2 -22 -4
0 -16 -2 -25 -4 -10 -2 -18 3 -18 11 0 8 6 11 15 8 8 -4 15 -1 15 4 0 18 -20
24 -35 12 -12 -10 -12 -8 -2 14 7 14 14 21 15 15 3 -6 10 -5 20 3z m252 -12
c0 -5 -8 -10 -17 -10 -15 0 -16 2 -3 10 19 12 20 12 20 0z m-459 -43 c-10 -9
-11 -8 -5 6 3 10 9 15 12 12 3 -3 0 -11 -7 -18z m284 -7 c-3 -5 -11 -10 -16
-10 -6 0 -7 5 -4 10 3 6 11 10 16 10 6 0 7 -4 4 -10z m-180 -21 c-4 -5 -12 -9
-18 -8 -9 0 -8 2 1 6 6 2 9 10 6 15 -4 7 -2 8 5 4 6 -4 9 -12 6 -17z m171 -12
l35 -33 -27 -13 c-23 -10 -26 -10 -16 2 9 10 8 19 -4 35 -15 21 -52 32 -39 12
4 -6 10 -8 15 -5 5 3 11 1 15 -5 3 -5 1 -10 -4 -10 -6 0 -10 -3 -10 -7 4 -25
-4 -24 -15 2 -9 20 -10 34 -3 43 13 17 14 16 53 -21z m55 1 c11 -8 10 -9 -3
-4 -10 3 -18 0 -18 -6 0 -9 -3 -9 -11 -1 -7 7 -9 20 -5 30 6 14 9 15 15 4 5
-7 15 -18 22 -23z m-736 -8 c3 -5 2 -10 -4 -10 -5 0 -13 5 -16 10 -3 6 -2 10
4 10 5 0 13 -4 16 -10z m842 -2 c15 -6 34 -10 41 -9 17 3 15 -16 -3 -23 -8 -3
-15 -1 -15 4 0 6 -6 10 -12 10 -13 1 -58 30 -46 30 4 0 19 -5 35 -12z m-102
-27 c3 -5 2 -12 -3 -15 -5 -3 -9 1 -9 9 0 17 3 19 12 6z m189 -12 c-6 -11 -24
-2 -24 11 0 5 7 7 15 4 8 -4 12 -10 9 -15z m-151 -14 c-7 -21 -12 -19 -10 4 0
11 5 18 9 15 4 -3 5 -11 1 -19z m67 10 c0 -8 -2 -15 -4 -15 -2 0 -6 7 -10 15
-3 8 -1 15 4 15 6 0 10 -7 10 -15z m-130 -4 c0 -5 -7 -12 -16 -15 -14 -5 -15
-4 -4 9 14 17 20 19 20 6z m97 -6 c0 -8 -4 -12 -9 -9 -5 3 -6 10 -3 15 9 13
12 11 12 -6z m110 -15 c8 -15 13 -19 13 -9 0 9 7 16 15 16 11 0 12 -4 4 -14
-7 -7 -7 -13 -2 -13 5 0 10 -7 10 -15 0 -8 -4 -12 -8 -9 -4 2 -7 -8 -5 -23 1
-18 7 -27 16 -25 10 2 11 0 2 -11 -7 -8 -9 -17 -5 -20 3 -4 -6 -7 -20 -7 -19
0 -25 -4 -21 -15 4 -8 10 -15 16 -15 5 0 7 4 4 8 -3 5 1 9 8 9 8 0 12 -6 9
-14 -3 -7 -16 -13 -29 -13 -18 0 -22 4 -17 17 5 12 3 14 -8 9 -8 -4 -4 2 9 13
19 17 21 24 12 38 -8 12 -10 13 -7 3 6 -19 -29 -25 -39 -8 -5 8 -1 9 10 5 12
-5 16 -2 14 11 -2 9 -7 20 -13 24 -6 5 -6 8 1 8 7 0 15 7 18 16 3 8 2 12 -4 9
-6 -3 -10 3 -10 14 0 15 -7 21 -22 21 -19 0 -20 2 -8 10 23 15 43 8 57 -20z
m-310 13 c-4 -3 2 -17 14 -29 17 -18 19 -26 10 -43 -7 -12 -14 -21 -17 -21 -2
0 0 9 7 21 9 17 7 25 -10 43 -18 19 -19 36 -3 36 3 0 2 -3 -1 -7z m-27 -18
c11 -13 10 -14 -4 -9 -9 3 -16 10 -16 15 0 13 6 11 20 -6z m174 0 c3 -8 2 -22
-1 -32 -5 -12 -3 -14 8 -8 12 8 12 6 0 -8 -7 -9 -11 -18 -7 -18 3 -1 10 -2 15
-3 5 0 13 -5 18 -10 5 -5 3 -6 -4 -2 -22 12 -14 -9 8 -22 18 -12 24 -11 47 10
15 13 21 16 15 8 -10 -13 -8 -18 7 -28 11 -7 17 -18 14 -27 -4 -8 -1 -15 6
-15 7 0 9 -8 5 -20 -4 -11 -2 -20 4 -20 6 0 11 5 11 10 0 6 8 10 18 10 16 -1
16 -1 -1 -11 -9 -6 -15 -14 -12 -19 9 -14 -38 -2 -47 12 -5 7 -7 25 -5 41 2
17 -3 32 -12 40 -14 11 -14 10 -2 -5 10 -14 11 -18 1 -18 -25 0 -79 41 -92 70
-7 17 -19 30 -25 30 -7 0 -13 2 -13 4 0 2 -3 11 -6 19 -4 12 0 14 17 10 15 -4
20 -3 15 5 -4 7 -3 12 2 12 6 0 12 -7 16 -15z m313 -7 c-3 -8 -6 -5 -6 6 -1
11 2 17 5 13 3 -3 4 -12 1 -19z m-522 2 c3 -5 1 -10 -4 -10 -6 0 -11 5 -11 10
0 6 2 10 4 10 3 0 8 -4 11 -10z m331 -16 c1 -9 0 -13 -4 -10 -3 4 -7 14 -8 22
-1 9 0 13 4 10 3 -4 7 -14 8 -22z m231 -16 c-3 -8 -6 -5 -6 6 -1 11 2 17 5 13
3 -3 4 -12 1 -19z m-298 -15 c0 -11 -3 -13 -6 -5 -2 6 -9 10 -14 6 -5 -3 -9 0
-9 5 0 6 7 11 15 11 8 0 15 -8 14 -17z m35 -8 c-4 -8 -11 -12 -16 -9 -6 4 -5
10 3 15 19 12 19 11 13 -6z m149 0 c-3 -9 -8 -14 -10 -11 -3 3 -2 9 2 15 9 16
15 13 8 -4z m-6 -57 c-3 -7 -5 -2 -5 12 0 14 2 19 5 13 2 -7 2 -19 0 -25z
m-350 7 c0 -8 -4 -12 -9 -9 -5 3 -6 10 -3 15 9 13 12 11 12 -6z m610 -37 c12
-20 14 -48 3 -48 -6 0 -10 10 -11 23 0 12 -3 16 -6 10 -2 -7 -12 -13 -21 -12
-11 0 -12 2 -4 6 6 2 12 11 12 19 0 17 16 18 27 2z m-233 -24 c3 -8 2 -12 -4
-9 -6 3 -10 10 -10 16 0 14 7 11 14 -7z m-210 -52 c0 -16 -7 -26 -18 -28 -14
-2 -15 0 -5 12 6 7 9 20 6 27 -3 8 0 14 7 14 6 0 11 -12 10 -25z m206 24 c0
-3 -4 -8 -10 -11 -5 -3 -10 -1 -10 4 0 6 5 11 10 11 6 0 10 -2 10 -4z m240
-27 c0 -5 -4 -9 -8 -9 -5 0 -9 7 -9 15 0 8 4 12 9 9 4 -3 8 -9 8 -15z m-46
-64 c3 -8 1 -15 -4 -15 -6 0 -10 7 -10 15 0 8 2 15 4 15 2 0 6 -7 10 -15z
m-331 -26 c-9 -9 -12 -7 -10 9 1 14 5 18 11 12 7 -7 6 -14 -1 -21z m352 -9
c-3 -5 -12 -10 -18 -10 -7 0 -6 4 3 10 19 12 23 12 15 0z m-645 -60 c0 -13
-30 -33 -38 -26 -10 11 -9 30 2 38 11 7 36 -1 36 -12z m50 -2 c0 -4 -7 -8 -15
-8 -8 0 -15 4 -15 8 0 5 7 9 15 9 8 0 15 -4 15 -9z m113 -23 c4 -8 3 -16 -1
-19 -4 -3 -9 4 -9 15 -2 23 3 25 10 4z m-105 -60 c-3 -3 -9 2 -12 12 -6 14 -5
15 5 6 7 -7 10 -15 7 -18z m135 10 c4 -8 2 -17 -3 -20 -6 -4 -10 3 -10 14 0
25 6 27 13 6z m526 -11 c-10 -13 -10 -17 2 -25 10 -6 11 -9 1 -9 -19 0 -27 31
-11 41 21 13 23 11 8 -7z m-589 -9 c0 -8 -4 -15 -9 -15 -13 0 -22 16 -14 24
11 11 23 6 23 -9z m40 11 c0 -2 -7 -7 -16 -10 -8 -3 -12 -2 -9 4 6 10 25 14
25 6z m-70 -37 c0 -5 -4 -9 -10 -9 -5 0 -10 7 -10 16 0 8 5 12 10 9 6 -3 10
-10 10 -16z m95 -10 c-4 -5 -8 -28 -11 -51 -4 -34 -3 -40 7 -31 7 7 12 26 12
42 0 26 2 28 13 14 9 -14 9 -22 -3 -40 -9 -13 -12 -23 -7 -23 5 0 -2 -7 -15
-16 -17 -13 -20 -19 -10 -25 18 -11 34 1 18 13 -11 8 -10 9 3 5 20 -7 42 17
34 38 -3 8 -1 15 4 15 6 0 10 -12 11 -27 0 -25 1 -26 9 -8 5 11 9 14 9 7 1 -7
6 -10 11 -7 16 10 22 -20 12 -59 -7 -24 -7 -36 1 -39 6 -2 4 -6 -5 -9 -12 -5
-15 -1 -13 17 1 17 -4 26 -16 30 -18 6 -24 18 -20 39 1 5 -5 4 -13 -3 -8 -7
-12 -19 -9 -27 6 -16 -13 -19 -23 -3 -3 6 -15 9 -25 6 -12 -3 -17 -1 -12 5 11
20 14 76 3 83 -8 5 -8 11 -1 19 8 9 6 12 -7 11 -9 0 -23 -4 -30 -9 -8 -5 -12
0 -12 14 0 18 3 19 21 9 15 -8 24 -8 32 0 6 6 7 11 2 11 -6 0 -3 4 5 9 16 11
33 4 25 -10z m48 6 c-3 -9 -8 -14 -10 -11 -3 3 -2 9 2 15 9 16 15 13 8 -4z
m231 -129 c-3 -9 -12 -12 -22 -9 -15 6 -9 11 25 22 1 1 0 -5 -3 -13z m-120
-11 c27 -20 8 -42 -22 -26 -10 6 -22 8 -26 6 -3 -3 -3 -2 0 3 3 4 10 8 15 8
22 3 23 6 4 14 -13 6 -15 9 -5 9 8 0 24 -6 34 -14z m432 -47 c4 -7 3 -8 -4 -4
-7 4 -12 2 -12 -5 0 -7 -3 -10 -6 -6 -6 5 3 27 11 27 2 0 7 -5 11 -12z m-566
-42 c0 -3 -4 -8 -10 -11 -5 -3 -10 -1 -10 4 0 6 5 11 10 11 6 0 10 -2 10 -4z
m25 -116 c3 -5 1 -10 -4 -10 -6 0 -11 5 -11 10 0 6 2 10 4 10 3 0 8 -4 11 -10z"/>
<path d="M900 2200 c6 -11 13 -20 16 -20 2 0 0 9 -6 20 -6 11 -13 20 -16 20
-2 0 0 -9 6 -20z"/>
<path d="M900 2102 c0 -12 3 -12 15 -2 8 7 15 13 15 15 0 1 -7 2 -15 2 -8 0
-15 -7 -15 -15z"/>
<path d="M660 1886 c-7 -10 -6 -16 3 -25 8 -6 17 -8 20 -4 4 3 15 -1 25 -10
16 -15 19 -15 29 2 6 10 8 23 4 30 -11 17 -68 22 -81 7z m44 -4 c3 -5 -1 -9
-9 -9 -8 0 -12 4 -9 9 3 4 7 8 9 8 2 0 6 -4 9 -8z m31 -11 c3 -5 1 -12 -5 -16
-5 -3 -10 1 -10 9 0 18 6 21 15 7z"/>
<path d="M645 1742 c3 -3 0 -11 -6 -19 -9 -10 -8 -13 4 -13 8 0 18 7 21 16 8
21 8 21 -9 21 -8 0 -13 -3 -10 -5z"/>
<path d="M513 1709 c-8 -21 -9 -29 -1 -27 6 2 12 12 14 23 1 10 9 22 16 26 10
7 10 9 -2 9 -9 0 -21 -14 -27 -31z"/>
<path d="M726 1714 c10 -8 13 -13 7 -9 -8 4 -13 0 -13 -10 0 -11 5 -15 15 -12
8 4 17 2 20 -3 4 -6 11 -10 16 -10 6 0 4 7 -3 15 -7 8 -19 21 -26 30 -7 8 -18
15 -24 15 -7 0 -3 -7 8 -16z"/>
<path d="M485 1700 c-3 -5 -1 -10 4 -10 6 0 11 5 11 10 0 6 -2 10 -4 10 -3 0
-8 -4 -11 -10z"/>
<path d="M480 1670 c0 -5 9 -14 20 -20 22 -12 27 -1 8 18 -14 14 -28 16 -28 2z"/>
<path d="M725 1660 c3 -5 8 -10 11 -10 2 0 4 5 4 10 0 6 -5 10 -11 10 -5 0 -7
-4 -4 -10z"/>
<path d="M786 1662 c-3 -5 1 -9 9 -9 8 0 15 4 15 9 0 4 -4 8 -9 8 -6 0 -12 -4
-15 -8z"/>
<path d="M756 1645 c4 -8 11 -15 16 -15 6 0 5 6 -2 15 -7 8 -14 15 -16 15 -2
0 -1 -7 2 -15z"/>
<path d="M1423 1585 c-16 -12 -15 -14 15 -13 33 1 43 12 18 21 -8 3 -22 -1
-33 -8z"/>
<path d="M1436 1493 c-6 -14 -5 -15 5 -6 7 7 10 15 7 18 -3 3 -9 -2 -12 -12z"/>
<path d="M1363 1400 c1 -11 3 -17 6 -15 2 3 10 0 18 -7 25 -20 23 -2 -1 20
-23 20 -25 20 -23 2z"/>
<path d="M1423 1398 c2 -15 6 -30 10 -34 10 -10 8 17 -3 41 -8 17 -9 16 -7 -7z"/>
<path d="M1425 1327 c8 -13 12 -28 8 -33 -4 -5 -1 -4 6 3 11 9 11 15 3 26 -7
8 -9 17 -5 20 3 4 -1 7 -11 7 -15 0 -15 -2 -1 -23z"/>
<path d="M1379 1322 c9 -7 10 -11 2 -15 -7 -4 -8 -5 0 -3 15 2 13 20 -3 24
-10 3 -10 2 1 -6z"/>
<path d="M1433 1283 c-13 -2 -23 -8 -23 -13 0 -5 9 -7 20 -5 21 4 36 -10 21
-19 -5 -4 -12 -2 -16 4 -7 12 -25 4 -25 -11 0 -6 5 -7 10 -4 6 4 17 2 24 -4
10 -9 15 -7 19 9 3 11 1 23 -5 26 -6 4 -5 10 3 15 14 9 10 9 -28 2z"/>
<path d="M1400 1210 c0 -5 5 -10 11 -10 5 0 7 5 4 10 -3 6 -8 10 -11 10 -2 0
-4 -4 -4 -10z"/>
<path d="M1583 1165 c4 -9 7 -19 7 -21 0 -3 5 -2 11 2 7 4 10 1 7 -7 -3 -8
-11 -13 -18 -11 -11 3 -11 0 -1 -12 7 -9 17 -13 22 -10 16 9 10 39 -13 58 -19
16 -20 17 -15 1z"/>
<path d="M1561 1114 c0 -11 3 -14 6 -6 3 7 2 16 -1 19 -3 4 -6 -2 -5 -13z"/>
<path d="M1654 930 c0 -13 4 -16 10 -10 7 7 7 13 0 20 -6 6 -10 3 -10 -10z"/>
<path d="M1703 895 c-3 -9 -3 -18 -1 -21 3 -3 8 4 11 16 6 23 -1 27 -10 5z"/>
<path d="M1670 891 c0 -6 5 -13 10 -16 6 -3 10 1 10 9 0 9 -4 16 -10 16 -5 0
-10 -4 -10 -9z"/>
<path d="M364 1649 c-17 -22 -3 -66 17 -54 16 10 10 27 -7 21 -14 -5 -15 -4
-4 8 6 9 10 20 8 27 -3 8 -7 7 -14 -2z"/>
<path d="M435 1630 c-4 -6 -11 -7 -17 -4 -7 4 -8 2 -4 -4 4 -7 2 -12 -3 -12
-6 0 -11 -5 -11 -11 0 -8 4 -8 15 1 8 6 18 9 22 7 5 -3 10 3 10 14 2 21 -3 24
-12 9z"/>
<path d="M905 1570 c-3 -5 -1 -10 4 -10 6 0 11 5 11 10 0 6 -2 10 -4 10 -3 0
-8 -4 -11 -10z"/>
<path d="M1015 1470 c3 -5 8 -10 11 -10 2 0 4 5 4 10 0 6 -5 10 -11 10 -5 0
-7 -4 -4 -10z"/>
<path d="M1056 1447 c3 -10 9 -15 12 -12 3 3 0 11 -7 18 -10 9 -11 8 -5 -6z"/>
<path d="M1110 1140 c-13 -8 -12 -10 3 -10 9 0 17 5 17 10 0 12 -1 12 -20 0z"/>
<path d="M1226 515 c-3 -8 0 -17 6 -21 6 -4 8 -3 4 4 -3 5 -1 12 6 14 8 3 9 6
1 11 -6 4 -13 0 -17 -8z"/>
<path d="M705 2300 c3 -5 8 -10 11 -10 2 0 4 5 4 10 0 6 -5 10 -11 10 -5 0 -7
-4 -4 -10z"/>
<path d="M930 1930 c0 -5 5 -10 10 -10 6 0 10 5 10 10 0 6 -4 10 -10 10 -5 0
-10 -4 -10 -10z"/>
<path d="M871 1867 c-13 -21 -12 -21 5 -5 10 10 16 20 13 22 -3 3 -11 -5 -18
-17z"/>
<path d="M1267 1667 c-7 -18 -8 -27 -2 -27 3 0 5 3 4 6 0 4 5 10 11 14 8 5 8
10 2 14 -5 3 -12 0 -15 -7z"/>
<path d="M1996 1652 c-3 -5 1 -9 9 -9 8 0 12 4 9 9 -3 4 -7 8 -9 8 -2 0 -6 -4
-9 -8z"/>
<path d="M1234 1551 c1 -16 5 -33 10 -38 5 -5 6 -3 2 5 -4 7 -3 19 3 26 8 10
8 16 -2 24 -11 9 -13 5 -13 -17z"/>
<path d="M1687 1564 c-4 -4 -7 -14 -7 -23 0 -11 3 -12 11 -4 6 6 10 16 7 23
-2 6 -7 8 -11 4z"/>
<path d="M1105 1550 c3 -5 8 -10 11 -10 2 0 4 5 4 10 0 6 -5 10 -11 10 -5 0
-7 -4 -4 -10z"/>
<path d="M1620 1535 c-9 -10 -9 -15 -1 -15 6 0 11 5 11 11 0 6 9 9 20 6 11 -3
20 -1 20 4 0 15 -36 10 -50 -6z"/>
<path d="M336 1154 c-5 -14 -4 -15 9 -4 11 9 15 9 15 1 0 -7 5 -9 11 -5 8 4 7
9 -2 15 -20 12 -26 11 -33 -7z"/>
<path d="M1030 1010 c0 -5 5 -10 10 -10 6 0 14 -9 18 -20 5 -14 11 -17 22 -10
13 9 11 13 -10 30 -28 22 -40 25 -40 10z"/>
<path d="M950 682 c0 -12 19 -26 26 -19 2 2 -2 10 -11 17 -9 8 -15 8 -15 2z"/>
<path d="M1713 603 c-7 -15 -11 -29 -8 -31 3 -3 5 0 5 7 0 7 5 9 10 6 7 -5 8
-11 1 -19 -7 -8 -4 -12 12 -13 12 -1 17 1 12 5 -6 4 -12 21 -14 37 -4 38 -4
38 -18 8z"/>
<path d="M997 599 c7 -7 15 -10 18 -7 3 3 -2 9 -12 12 -14 6 -15 5 -6 -5z"/>
<path d="M920 590 c0 -5 5 -10 10 -10 6 0 10 5 10 10 0 6 -4 10 -10 10 -5 0
-10 -4 -10 -10z"/>
<path d="M967 593 c-4 -3 -7 -11 -7 -17 0 -6 5 -5 12 2 6 6 9 14 7 17 -3 3 -9
2 -12 -2z"/>
<path d="M993 574 c4 -7 -5 -17 -23 -24 -17 -7 -29 -15 -26 -17 2 -2 18 3 35
11 17 9 33 15 35 14 2 -2 8 2 13 7 4 6 4 7 -1 3 -5 -4 -16 -2 -24 5 -10 7 -13
8 -9 1z"/>
<path d="M1715 521 c2 -9 4 -18 4 -20 1 -2 8 2 16 9 16 14 13 23 -9 26 -8 1
-13 -5 -11 -15z"/>
<path d="M1620 461 c0 -5 5 -13 10 -16 6 -3 10 -2 10 4 0 5 -4 13 -10 16 -5 3
-10 2 -10 -4z"/>
<path d="M1325 450 c3 -5 8 -10 11 -10 2 0 4 5 4 10 0 6 -5 10 -11 10 -5 0 -7
-4 -4 -10z"/>
<path d="M1456 423 c-6 -14 -5 -15 5 -6 7 7 10 15 7 18 -3 3 -9 -2 -12 -12z"/>
<path d="M1630 415 c7 -8 18 -15 25 -15 8 0 16 -6 18 -12 4 -10 6 -10 6 -1 1
12 -37 43 -52 43 -5 0 -4 -7 3 -15z"/>
<path d="M1523 413 c-7 -2 -13 -9 -13 -14 0 -6 5 -7 12 -3 7 4 8 3 4 -5 -6 -9
-11 -9 -21 -1 -10 8 -15 8 -20 -1 -6 -8 -10 -7 -16 2 -5 9 -9 10 -9 2 0 -6
-10 -9 -22 -7 -21 4 -21 4 -3 -5 11 -4 23 -7 26 -5 9 5 20 -26 13 -37 -3 -5 0
-9 6 -9 7 0 10 -5 8 -12 -5 -14 -38 -20 -38 -7 0 6 -4 8 -8 5 -5 -3 -6 9 -4
26 4 27 2 30 -16 26 -12 -3 -23 -1 -25 6 -3 8 -9 7 -18 -3 -9 -9 -9 -11 -1 -7
7 4 12 1 12 -9 0 -15 16 -33 71 -79 19 -16 21 -16 16 -2 -5 13 -3 16 11 12 9
-3 23 -2 30 3 16 10 26 61 12 61 -6 0 -9 -3 -7 -7 7 -11 -11 -53 -22 -53 -5 0
-7 9 -4 20 3 11 9 20 14 20 4 0 6 9 4 19 -2 13 1 18 10 15 9 -4 12 4 11 25 0
17 -1 31 -1 30 0 0 -6 -3 -12 -6z"/>
<path d="M1233 396 c0 -8 6 -12 14 -9 7 3 10 9 7 14 -8 14 -21 11 -21 -5z"/>
<path d="M1157 373 c-10 -9 -9 -23 1 -23 5 0 9 7 9 15 0 17 -1 18 -10 8z"/>
<path d="M1246 365 c-3 -9 -2 -14 3 -10 5 3 11 -1 14 -7 2 -7 7 -11 10 -8 3 3
0 13 -8 23 -11 16 -13 16 -19 2z"/>
<path d="M1184 358 c-4 -6 -3 -8 3 -5 6 4 23 -5 38 -19 15 -14 29 -23 32 -20
8 8 -8 27 -18 21 -5 -4 -9 -2 -9 4 0 17 -38 33 -46 19z"/>
<path d="M1330 336 c-23 -29 -23 -30 -1 -11 l23 19 19 -24 c23 -31 25 -20 2
18 l-18 29 -25 -31z"/>
<path d="M1610 363 c16 -8 12 -23 -5 -17 -11 5 -13 2 -9 -9 7 -20 36 -10 32
11 -2 8 -9 17 -16 18 -7 1 -8 0 -2 -3z"/>
<path d="M1450 348 c0 -9 8 -22 18 -29 16 -13 16 -13 2 5 -8 11 -13 21 -12 23
2 3 1 7 -2 11 -3 3 -6 -2 -6 -10z"/>
<path d="M1335 310 c-3 -6 1 -7 9 -4 18 7 21 14 7 14 -6 0 -13 -4 -16 -10z"/>
<path d="M1400 291 c0 -5 7 -12 16 -15 14 -5 15 -4 4 9 -14 17 -20 19 -20 6z"/>
</g>
</svg>
